<svg xmlns="http://www.w3.org/2000/svg" width="512" height="512" xml:space="preserve"><path fill-rule="evenodd" clip-rule="evenodd" fill="#A4C639" d="M304 112.003c0 8.844-7.18 16.004-16.008 16.004-8.844 0-16-7.16-16-16.004s7.156-16 16-16c8.828 0 16.008 7.156 16.008 16zm-96.016 0c0 8.844-7.156 16.004-16 16.004-8.828 0-15.984-7.16-15.984-16.004s7.156-16 15.984-16c8.844 0 16 7.156 16 16zM433.93 337.937l-.016-.016c-2.906 2.906-6.922 4.719-11.352 4.719-8.883 0-16.078-7.195-16.078-16.078 0-4.75 2.117-8.984 5.422-11.93 2.508-2.836 4.086-6.531 4.086-10.617v-96.02c0-8.824-7.156-16-16-16-8.828 0-16 7.176-16 16v144.004c0 20.922-10.086 39.414-25.602 51.094-.055.055-.094.18-.164.234-3.781 2.922-6.242 7.516-6.242 12.68v48.008c0 26.492-21.492 47.984-47.984 47.984-26.516 0-48.008-21.492-48.008-47.984v-36.008c0-6.633-5.359-12-12-12h-8c-6.625 0-12 5.367-12 12v36.008c0 26.492-21.5 47.984-47.992 47.984-26.516 0-48.008-21.492-48.008-47.984v-48.008c0-5.164-2.438-9.758-6.242-12.68-.07-.055-.102-.18-.164-.234-15.516-11.68-25.594-30.172-25.594-51.094v-2.922c-5.031 1.797-10.375 2.922-16 2.922-26.5 0-47.992-21.492-47.992-47.984v-96.02c0-25.383 19.805-45.957 44.758-47.664a15.98 15.98 0 0 1 3.234-.32H304c17.664 0 32-14.336 32-32.004 0-6.801-2.172-13.062-5.773-18.227-20.398-27.734-53.172-45.781-90.234-45.781-44.258 0-82.484 25.688-100.656 62.949l-.039-.02c-2.617 5.348-8.07 9.078-14.43 9.078-8.906 0-16.125-7.23-16.125-16.129 0-3.945 1.469-7.516 3.828-10.312a144.868 144.868 0 0 1 50.961-55.418L146.134 24.01c-4.414-7.66-1.797-17.438 5.859-21.867 7.648-4.414 17.438-1.797 21.859 5.863l18.562 32.148c14.891-5.238 30.875-8.145 47.578-8.145 16.68 0 32.648 2.996 47.539 8.219l18.602-32.223C310.563.345 320.336-2.272 328 2.142c7.641 4.43 10.258 14.207 5.852 21.867l-17.461 30.227c15.359 9.707 28.867 22.066 39.594 36.688 7.484 10.496 12 23.23 12 37.082 0 35.34-28.648 63.988-63.984 63.988H79.992c-8.828 0-16.008 7.176-16.008 16v96.02c0 8.82 7.18 16 16.008 16 8.844 0 16-7.18 16-16v-64.012c0-8.828 7.156-16.004 16-16.004s16 7.176 16 16.004v111.996c0 11.984 6.656 22.297 16.398 27.789 9.367 5.617 15.602 15.789 15.602 27.469v56.758c0 8.828 7.164 15.984 16.008 15.984 8.828 0 15.984-7.156 15.984-15.984v-40.008c0-22.102 17.922-40 40.008-40h16c22.102 0 40 17.898 40 40v40.008c0 8.828 7.164 15.984 16.008 15.984 8.82 0 16-7.156 16-15.984v-56.758c0-11.68 6.227-21.852 15.609-27.469 9.719-5.492 16.375-15.805 16.375-27.789V207.994c0-26.496 21.492-47.984 48.008-47.984S448 181.499 448 207.995v96.02c0 13.257-5.383 25.242-14.07 33.922z"/></svg>